<svg width="14" height="15" viewBox="0 0 14 15" fill="none" xmlns="http://www.w3.org/2000/svg">
<path d="M0.718674 1.03125L2.01867 1.25625L3.55805 8.42688C3.6068 9.01125 4.09492 9.46 4.68117 9.46H10.5637C11.1237 9.46 11.5987 9.04875 11.6793 8.49375L13.0625 3.68742C13.1356 3.1818 12.7437 2.7293 12.2331 2.7293L3.16492 3.43688M4.85861 11.1875C5.50548 11.1875 6.03125 11.7133 6.03125 12.3601C6.03125 13.007 5.50548 13.5313 4.85861 13.5313C4.21174 13.5313 3.6875 13.007 3.6875 12.3601C3.6875 11.7133 4.21174 11.1875 4.85861 11.1875ZM11.0112 11.1875C11.6581 11.1875 12.1839 11.7133 12.1839 12.3601C12.1839 13.007 11.6581 13.5313 11.0112 13.5313C10.3644 13.5313 9.83858 13.007 9.83858 12.3601C9.83858 11.7133 10.3644 11.1875 11.0112 11.1875Z" stroke="#200E32" stroke-width="1.2" stroke-linecap="round" stroke-linejoin="round"/>
</svg>
